<?xml version="1.0" encoding="UTF-8" standalone="no"?>
<!-- Created with Inkscape (http://www.inkscape.org/) -->

<svg
   version="1.1"
   id="svg2"
   width="226.19804"
   height="226.19804"
   viewBox="0 0 226.19804 226.19804"
   xmlns="http://www.w3.org/2000/svg"
   xmlns:svg="http://www.w3.org/2000/svg">
  <defs
     id="defs6" />
  <g
     id="g8"
     transform="translate(-4.0582886,1.5042191)">
    <path
       style="fill:#000000"
       d="M 107.79908,191.54901 C 77.098395,187.27207 52.542561,157.81612 53.681913,126.85404 53.59793,108.25779 61.93455,90.08893 75.142805,77.160325 c -5.761578,15.981646 -4.954929,35.887025 7.129872,48.820825 8.722853,4.0396 9.489817,-8.23845 7.314593,-13.79744 -11.392545,-40.640807 8.638311,-68.529008 44.40361,-84.922135 -2.21425,7.189056 -5.7251,14.058046 -4.0639,21.910706 0.76403,13.309141 8.6211,25.152714 19.3786,32.935379 15.34927,11.104654 29.41803,26.69451 32.17605,46.25672 4.31999,28.83155 -18.08614,57.9794 -46.65054,62.5102 -8.87996,1.79387 -18.07396,2.03186 -27.03201,0.67443 z m 33.49474,-69.93771 c -6.6064,-7.51808 -14.47244,-14.22276 -18.93532,-23.361705 -6.77396,14.885775 5.24223,31.061905 -1.45296,46.026255 -1.28999,7.77422 -19.8075,11.26947 -10.53641,19.21687 10.8085,6.56877 25.8529,2.43876 33.95449,-6.69391 9.18415,-10.19354 6.55783,-26.22404 -3.0298,-35.18751 z"
       id="path852" />
    <circle
       style="fill:none;fill-rule:evenodd;stroke:#1a1a1a;stroke-width:16;stroke-miterlimit:4;stroke-dasharray:none"
       id="path4284"
       cx="117.15731"
       cy="111.5948"
       r="105.09902" />
  </g>
</svg>
